<svg width="25" height="24" viewBox="0 0 25 24" fill="none" xmlns="http://www.w3.org/2000/svg">
<path d="M19.7063 4.3C19.3063 3.9 18.7063 3.9 18.3063 4.3L12.0063 10.6L5.70635 4.3C5.30635 3.9 4.70635 3.9 4.30635 4.3C3.90635 4.7 3.90635 5.3 4.30635 5.7L10.6063 12L4.30635 18.3C3.90635 18.7 3.90635 19.3 4.30635 19.7C4.50635 19.9 4.70635 20 5.00635 20C5.30635 20 5.50635 19.9 5.70635 19.7L12.0063 13.4L18.3063 19.7C18.5063 19.9 18.8063 20 19.0063 20C19.2063 20 19.5063 19.9 19.7063 19.7C20.1063 19.3 20.1063 18.7 19.7063 18.3L13.4063 12L19.7063 5.7C20.1063 5.3 20.1063 4.7 19.7063 4.3Z" fill="#009EB3"/>
</svg>
